HIERARCHY
ROOT hips
{
  OFFSET 0 10.680822821525009 1.3929502295107734
  CHANNELS 6 Xposition Yposition Zposition Yrotation Xrotation Zrotation
  JOINT spine
  {
    OFFSET -7.042017322922631e-31 0.6058489940359625 0
    CHANNELS 3 Yrotation Xrotation Zrotation
    JOINT chest
    {
      OFFSET 0 1.2699794144455032 0
      CHANNELS 3 Yrotation Xrotation Zrotation
      JOINT upperChest
      {
        OFFSET 0 1.217799211677689 0
        CHANNELS 3 Yrotation Xrotation Zrotation
        JOINT neck
        {
          OFFSET 0 1.5248826104153006 0
          CHANNELS 3 Yrotation Xrotation Zrotation
          JOINT head
          {
            OFFSET 0 0.8197772727844447 0
            CHANNELS 3 Yrotation Xrotation Zrotation
            JOINT leftEye
            {
              OFFSET 0.2793952361220866 0.6769952096623495 0.1830357412467788
              CHANNELS 3 Yrotation Xrotation Zrotation
              End Site
              {
                OFFSET 0.2793952361220866 0.6769952096623495 0.1830357412467788
              }
            }
            JOINT rightEye
            {
              OFFSET -0.27939522230689573 0.676995205357064 0.18303631459760622
              CHANNELS 3 Yrotation Xrotation Zrotation
              End Site
              {
                OFFSET -0.27939522230689573 0.676995205357064 0.18303631459760622
              }
            }
          }
        }
        JOINT leftShoulder
        {
          OFFSET 0.41486978509200423 1.1670505408695453 0
          CHANNELS 3 Yrotation Xrotation Zrotation
          JOINT leftUpperArm
          {
            OFFSET 0.9737926108153417 0 0
            CHANNELS 3 Yrotation Xrotation Zrotation
            JOINT leftLowerArm
            {
              OFFSET 2.5269332222665284 0 0
              CHANNELS 3 Yrotation Xrotation Zrotation
              JOINT leftHand
              {
                OFFSET 2.4263782738425914 0 0
                CHANNELS 3 Yrotation Xrotation Zrotation
                JOINT leftIndexProximal
                {
                  OFFSET 0.724320348022514 0.08170607082582437 0.20360061616140124
                  CHANNELS 3 Yrotation Xrotation Zrotation
                  JOINT leftIndexIntermediate
                  {
                    OFFSET 0.36548960630744587 -0.010566596513783999 -0.01414783573280308
                    CHANNELS 3 Yrotation Xrotation Zrotation
                    JOINT leftIndexDistal
                    {
                      OFFSET 0.22502819650693362 -0.007863819831430696 -0.007567681939621526
                      CHANNELS 3 Yrotation Xrotation Zrotation
                      End Site
                      {
                        OFFSET 0.22502819650693362 -0.007863819831430696 -0.007567681939621526
                      }
                    }
                  }
                }
                JOINT leftLittleProximal
                {
                  OFFSET 0.6720322998298205 0.08170601055037707 -0.3230036039466837
                  CHANNELS 3 Yrotation Xrotation Zrotation
                  JOINT leftLittleIntermediate
                  {
                    OFFSET 0.34583592281688713 5.476543019078406e-8 1.3869203337180114e-7
                    CHANNELS 3 Yrotation Xrotation Zrotation
                    JOINT leftLittleDistal
                    {
                      OFFSET 0.19925728062053938 0.003098047439490381 0.0038303983709246925
                      CHANNELS 3 Yrotation Xrotation Zrotation
                      End Site
                      {
                        OFFSET 0.19925728062053938 0.003098047439490381 0.0038303983709246925
                      }
                    }
                  }
                }
                JOINT leftMiddleProximal
                {
                  OFFSET 0.7300436596551069 0.0817073395107144 0.022661722987926763
                  CHANNELS 3 Yrotation Xrotation Zrotation
                  JOINT leftMiddleIntermediate
                  {
                    OFFSET 0.40758254347686607 -0.0000012383587111308714 2.408460318820138e-7
                    CHANNELS 3 Yrotation Xrotation Zrotation
                    JOINT leftMiddleDistal
                    {
                      OFFSET 0.2514490105498507 0.0000013869132886590307 9.738618134136345e-8
                      CHANNELS 3 Yrotation Xrotation Zrotation
                      End Site
                      {
                        OFFSET 0.2514490105498507 0.0000013869132886590307 9.738618134136345e-8
                      }
                    }
                  }
                }
                JOINT leftRingProximal
                {
                  OFFSET 0.7217261161191838 0.08170601902187746 -0.15043395722184966
                  CHANNELS 3 Yrotation Xrotation Zrotation
                  JOINT leftRingIntermediate
                  {
                    OFFSET 0.37808807487521556 0.0000013754022405443322 2.2046919317952884e-7
                    CHANNELS 3 Yrotation Xrotation Zrotation
                    JOINT leftRingDistal
                    {
                      OFFSET 0.21812105442344254 -0.002713483731960231 -0.004991354517454624
                      CHANNELS 3 Yrotation Xrotation Zrotation
                      End Site
                      {
                        OFFSET 0.21812105442344254 -0.002713483731960231 -0.004991354517454624
                      }
                    }
                  }
                }
                JOINT leftThumbProximal
                {
                  OFFSET 0.10793587079521427 -0.1652791240518252 -0.07775251827190094
                  CHANNELS 3 Yrotation Xrotation Zrotation
                  JOINT leftThumbIntermediate
                  {
                    OFFSET 0.40355819082296684 -0.017484006740276614 0.3177776014416309
                    CHANNELS 3 Yrotation Xrotation Zrotation
                    JOINT leftThumbDistal
                    {
                      OFFSET 0.2318764658022603 -0.018510186824293617 0.21396001800186287
                      CHANNELS 3 Yrotation Xrotation Zrotation
                      End Site
                      {
                        OFFSET 0.2318764658022603 -0.018510186824293617 0.21396001800186287
                      }
                    }
                  }
                }
              }
            }
          }
        }
        JOINT rightShoulder
        {
          OFFSET -0.4148697850920044 1.1670505408695453 0
          CHANNELS 3 Yrotation Xrotation Zrotation
          JOINT rightUpperArm
          {
            OFFSET -0.9737926108153414 0 0
            CHANNELS 3 Yrotation Xrotation Zrotation
            JOINT rightLowerArm
            {
              OFFSET -2.5269332222665293 0 0
              CHANNELS 3 Yrotation Xrotation Zrotation
              JOINT rightHand
              {
                OFFSET -2.42637827384259 0 0
                CHANNELS 3 Yrotation Xrotation Zrotation
                JOINT rightIndexProximal
                {
                  OFFSET -0.724320348022514 0.08170607082582437 0.20360061616140124
                  CHANNELS 3 Yrotation Xrotation Zrotation
                  JOINT rightIndexIntermediate
                  {
                    OFFSET -0.36548960630744587 -0.010566596513783999 -0.01414783573280308
                    CHANNELS 3 Yrotation Xrotation Zrotation
                    JOINT rightIndexDistal
                    {
                      OFFSET -0.22502819650693362 -0.007863819831430696 -0.007567681939621526
                      CHANNELS 3 Yrotation Xrotation Zrotation
                      End Site
                      {
                        OFFSET -0.22502819650693362 -0.007863819831430696 -0.007567681939621526
                      }
                    }
                  }
                }
                JOINT rightLittleProximal
                {
                  OFFSET -0.6720322998298205 0.08170601055037707 -0.3230036039466837
                  CHANNELS 3 Yrotation Xrotation Zrotation
                  JOINT rightLittleIntermediate
                  {
                    OFFSET -0.34583592281688713 5.476543019078406e-8 1.3869203337180114e-7
                    CHANNELS 3 Yrotation Xrotation Zrotation
                    JOINT rightLittleDistal
                    {
                      OFFSET -0.19925728062053938 0.003098047439490381 0.0038303983709246925
                      CHANNELS 3 Yrotation Xrotation Zrotation
                      End Site
                      {
                        OFFSET -0.19925728062053938 0.003098047439490381 0.0038303983709246925
                      }
                    }
                  }
                }
                JOINT rightMiddleProximal
                {
                  OFFSET -0.7300436596551069 0.0817073395107144 0.022661722987926763
                  CHANNELS 3 Yrotation Xrotation Zrotation
                  JOINT rightMiddleIntermediate
                  {
                    OFFSET -0.40758254347686607 -0.0000012383587111308714 2.408460318820138e-7
                    CHANNELS 3 Yrotation Xrotation Zrotation
                    JOINT rightMiddleDistal
                    {
                      OFFSET -0.2514490105498507 0.0000013869132886590307 9.738618134136345e-8
                      CHANNELS 3 Yrotation Xrotation Zrotation
                      End Site
                      {
                        OFFSET -0.2514490105498507 0.0000013869132886590307 9.738618134136345e-8
                      }
                    }
                  }
                }
                JOINT rightRingProximal
                {
                  OFFSET -0.7217261161191838 0.08170601902187746 -0.15043395722184966
                  CHANNELS 3 Yrotation Xrotation Zrotation
                  JOINT rightRingIntermediate
                  {
                    OFFSET -0.37808807487521556 0.0000013754022405443322 2.2046919317952884e-7
                    CHANNELS 3 Yrotation Xrotation Zrotation
                    JOINT rightRingDistal
                    {
                      OFFSET -0.21812105442344254 -0.002713483731960231 -0.004991354517454624
                      CHANNELS 3 Yrotation Xrotation Zrotation
                      End Site
                      {
                        OFFSET -0.21812105442344254 -0.002713483731960231 -0.004991354517454624
                      }
                    }
                  }
                }
                JOINT rightThumbProximal
                {
                  OFFSET -0.10793587079521427 -0.1652791240518252 -0.07775251827190094
                  CHANNELS 3 Yrotation Xrotation Zrotation
                  JOINT rightThumbIntermediate
                  {
                    OFFSET -0.40355819082296684 -0.017484006740276614 0.3177776014416309
                    CHANNELS 3 Yrotation Xrotation Zrotation
                    JOINT rightThumbDistal
                    {
                      OFFSET -0.2318764658022603 -0.018510186824293617 0.21396001800186287
                      CHANNELS 3 Yrotation Xrotation Zrotation
                      End Site
                      {
                        OFFSET -0.2318764658022603 -0.018510186824293617 0.21396001800186287
                      }
                    }
                  }
                }
              }
            }
          }
        }
      }
    }
  }
  JOINT leftUpperLeg
  {
    OFFSET 0.8486251390888677 -0.4421577294694363 0
    CHANNELS 3 Yrotation Xrotation Zrotation
    JOINT leftLowerLeg
    {
      OFFSET 0 -4.10147812638609 0
      CHANNELS 3 Yrotation Xrotation Zrotation
      JOINT leftFoot
      {
        OFFSET -0.0002543926476658853 -4.77292286812444 0.007402811231737388
        CHANNELS 3 Yrotation Xrotation Zrotation
        JOINT leftToes
        {
          OFFSET 0 -0.7027875951174846 1.2062924140498823
          CHANNELS 3 Yrotation Xrotation Zrotation
          End Site
          {
            OFFSET 0 -0.7027875951174846 1.2062924140498823
          }
        }
      }
    }
  }
  JOINT rightUpperLeg
  {
    OFFSET -0.8486251390888677 -0.4421577294694363 0
    CHANNELS 3 Yrotation Xrotation Zrotation
    JOINT rightLowerLeg
    {
      OFFSET 0 -4.10147812638609 0
      CHANNELS 3 Yrotation Xrotation Zrotation
      JOINT rightFoot
      {
        OFFSET 0.0002543926476658853 -4.77292286812444 0.007402811231737388
        CHANNELS 3 Yrotation Xrotation Zrotation
        JOINT rightToes
        {
          OFFSET 0 -0.7027875951174846 1.2062924140498823
          CHANNELS 3 Yrotation Xrotation Zrotation
          End Site
          {
            OFFSET 0 -0.7027875951174846 1.2062924140498823
          }
        }
      }
    }
  }
}
MOTION
Frames: 4
Frame Time: 0.03333333333333333
0.04905464127659798 -0.2691368779214933 0.02481451816856861 1.5086195822882986 -0.8959943736527312 -5.400671428508408 -1.1587874266858804 1.2968587507699325 3.003876605663912 1.2666078441565978 1.3390457967497937 11.80854071286975 0 0 0 -0.33266801832224874 1.0447768467398084 -2.165939356709926 0.4395033760979013 1.5774610338974437 -8.134681895215033 0 0 0 0 0 0 -13.834931588112733 3.4986505390223424 -4.224250657922663 2.6896291005317394 3.5374119100319357 -77.5196283342507 -14.38955230547194 -1.8504916601250492 0.42039821726846904 6.817180790158257 -26.269185601099252 -11.855898711309736 4.551383679495093 0.22417858632509913 -7.877581233419523 2.5634712516906673 0.34016980501129285 -20.583598681048084 0.6861194031109205 0.023039891215458904 -10.179083515556261 15.041978539470955 6.181648626879347 -35.61880975783421 3.5490928185486474 1.154729332279854 -45.6084878545425 2.5938092849152525 0.43984312958160604 -20.537764100149555 8.453795054210367 1.2152901000487404 -15.808454345652562 3.583896312323818 0.7964546285128579 -33.39141709780091 1.3315814560963237 0.15381389708674417 -12.27864010645583 11.121598588892962 2.873668233705854 -26.547220707834455 3.4100389846737995 1.5339414891909773 -40.1600853679545 1.5898973592681325 0.5031292993940426 -19.35107317906808 -3.318634567275646 18.936557764012182 9.906697286183208 32.37153822664762 3.9055997468395645 -2.273712860714405 8.660114808412267 4.266385100127613 -0.22382417184665193 3.3858052293119694 4.499800639970939 4.1942952019585995 1.2736595874004557 -1.6211535932075747 61.30324085009472 17.597269414979962 -2.244327958678357 -0.5763999919577469 -9.562221409142527 -9.277210345098283 11.963526662878413 -4.551366386738136 0.2241924869336849 7.877595233057193 -2.5634344227695465 0.3402097996755003 20.583614268820458 -0.039240779878116874 -0.21462889798148996 13.845661525042024 -15.041899441218996 6.1816791131067 35.61887565041625 -3.5490078023213987 1.1547624227288977 45.60845648271165 0.031182874531797976 -0.7822375212177289 22.12360161091122 -8.453765832673202 1.2153079265835809 15.80848836066505 -3.5838377240658916 0.7964988689343834 33.39145118912371 -1.4859774826146812 0.18832390237455865 15.912891597377966 -11.121542927319057 2.873712044698255 26.54725893782609 -3.4099616241066193 1.5339756523797319 40.1600853679545 0.26169838398254613 -0.19343946230885348 17.81263854929002 3.318722539484689 18.936469306777887 -9.90668342520128 -32.37154295045312 3.90559760743696 2.273691697303249 -7.7669062526134915 4.160668122081924 1.0508155562998371 11.660649450047343 -19.24957073488049 11.913811119423519 10.270058852090106 21.837411898563737 6.075940848445509 3.2424514351928178 -1.5336815286944157 -8.923264367422801 4.442779422861501e-9 -0.4419618849776694 8.537278449019241e-7 -4.836067359848708 -1.6252222833246104 10.750007735110216 -5.162554215577189 12.43309027434902 2.2197216182549084 0.9248355666026257 -9.867868916563653 -7.925473133545462 -0.000001704329543232129 -0.5486519743321975 -0.0000033930992015378385
0.04134857654571533 -0.2656511982950285 0.025576241314411163 1.437223492785295 -0.885397335360451 -5.36254503602872 -1.146295903463373 1.2913019350962707 2.952339938495304 1.276112328676631 1.3374841389497183 11.781848776435917 0 0 0 -0.34742523856990887 1.0260447690108918 -2.1538404097411608 0.7910402090607495 1.4837090538776547 -7.727468156462018 0 0 0 0 0 0 -13.82796317861522 3.499970586386773 -4.209929385805517 2.50346921865142 3.64515586990201 -77.4968794781403 -14.548658368443537 -1.8702336286841772 0.4275999896010827 7.029489738625098 -26.546856685058344 -11.636783747532705 4.559658188613221 0.22531808942480275 -7.974420435468163 2.5726589050185593 0.34365998710120177 -20.695122168363866 0.688469668243311 0.023351220134582802 -10.20597295900705 15.048927378690996 6.1866106055536525 -35.71489689558354 3.5565901053742954 1.1610267719148613 -45.7199401585812 2.595953908262374 0.4408277197550206 -20.56464396206343 8.460625388917556 1.2203027768434487 -15.90513264857317 3.592130650251509 0.801616138756114 -33.50307428809128 1.3338574264602172 0.15440608463404246 -12.305521274342153 11.125675655124844 2.883199835613738 -26.643475334478886 3.416747634065447 1.5410464833705309 -40.271970475461515 1.5919655246622955 0.5041311347489787 -19.377932943494585 -3.318634084178656 18.936575816514736 9.906679234856457 32.37153822664762 3.9056006026006074 -2.273710509224307 8.660113115642101 4.266391521223156 -0.22381817886994765 3.381075119229546 4.5003269062257525 4.190373405248064 1.040892620284758 -1.329159726455995 61.35456930297884 17.978368245271454 -2.2904796099606157 -0.5963807332381444 -9.004427998361868 -9.387892667674086 12.108024421036538 -4.554414495006061 0.2246085980559282 7.913131578068942 -2.5668057885043387 0.34146454897148965 20.624518986861712 -0.04015238954009278 -0.21461505074301637 13.855572867437102 -15.044418460095606 6.183478233015601 35.65410357907103 -3.551760234837065 1.1570633840600006 45.64939201708587 0.030164848160040014 -0.782326215222059 22.133486184625113 -8.456261168464863 1.2171473694221948 15.843956266508693 -3.586857688989377 0.7983739374662959 33.43239249693466 -1.4868147553499782 0.1885680429372459 15.922778389118545 -11.123030423890786 2.877173759552412 26.582559037994006 -3.412426626328103 1.5365920204600225 40.20115386549409 0.26081336725105736 -0.19338814221617953 17.822494242405092 3.3187105835000974 18.936474722525585 -9.906727347490108 -32.37152588795432 3.905611299613723 2.2736876356384106 -7.766918975261502 4.160647577369464 1.0507980106423702 11.650411860059991 -19.105645714647807 11.935170025286766 10.37829243840621 21.575300500328517 6.051820512567666 3.2176801185703843 -1.395629751182964 -8.9469171636175 -0.000019914077643521654 -0.42434611020021024 -5.965588516991354e-7 -4.818160416632314 -1.4674063896299112 10.76068921326931 -5.001977674324838 12.097868917150782 2.267365416330013 0.8486816741051061 -9.703357362527505 -7.9846903418270925 -4.5552341982208333e-7 -0.5667607843470904 -0.0000027688929244438876
0.029280049726366997 -0.2584223469766691 0.02821425348520279 1.2616055829236668 -0.8742886438955385 -5.269107328695636 -1.1241047901842935 1.2791603537288843 2.8670157329771766 1.2930324325575457 1.3326817458654516 11.739839691536263 0 0 0 -0.37642418592889837 0.9863726472622882 -2.1320932898291276 1.5259472298798111 1.2416577028000269 -6.948093358967013 0 0 0 0 0 0 -13.814959966861835 3.5021340310682065 -4.1924429311707145 2.0113735247682976 3.919890222311587 -77.44175790821258 -14.948214695257375 -1.919700793469095 0.4460123350401665 7.570707491033661 -27.336352048759103 -11.076748444920993 4.599623285719368 0.23101347181769777 -8.440760511704438 2.6168363862876327 0.360571081164087 -21.232370665645355 0.699817090040201 0.024933968205420563 -10.335481888610051 15.08191439495017 6.210357127220687 -36.17782952722968 3.5925458840410966 1.1916205144940748 -46.25671781442726 2.606272651257438 0.44559053181654124 -20.694087396910213 8.49323854252773 1.244513500700279 -16.370698086331146 3.6316325565433796 0.8267970532396995 -34.04075393579679 1.3447564956964246 0.15717262829981882 -12.435018515069542 11.144792833730124 2.928891089007324 -27.107070799042507 3.448828163711237 1.5754197422778198 -40.810815520176156 1.6020397087452307 0.5090157646949486 -19.507333843498724 -3.3186446885088103 18.93655956926235 9.906698796515299 32.37153061175956 3.905601458361652 -2.2736716027506683 8.660124634297233 4.266383815908511 -0.22383171657624587 3.3706240812164117 4.501044153361406 4.175007137786341 0.5068291953557803 -0.7083098322583665 61.45600504869467 18.831881524993452 -2.3934276205578873 -0.6422275485850935 -7.822495603615719 -9.595045234630351 12.444008168377811 -4.572084210067965 0.22705147687678837 8.119192278709976 -2.5863611216106808 0.34889504918378206 20.86195659234765 -0.0454045528295522 -0.21457390923687406 13.912812735207993 -15.059004890951199 6.1938990792618345 35.85869987474654 -3.567710703500776 1.170518217140354 45.886622372662266 0.024398412393273554 -0.7828370863196077 22.190714245573936 -8.470727032959209 1.2277909065342043 16.04971053816942 -3.6043633163084574 0.8094408403941169 33.670041261890034 -1.4915878564360725 0.1899494962541041 15.979995451752519 -11.131570917470142 2.897359327359709 26.787450948147995 -3.4266637545497463 1.5517217947997917 40.43930450229943 0.2556700967917144 -0.19308043510801626 17.87972989526291 3.318710599765904 18.9364675015287 -9.906726726322784 -32.37154295045312 3.9056160062995366 2.2737008894920088 -7.766912189849326 4.160666410022532 1.0508206916141807 11.699135809009094 -18.79903614094757 11.960554312942076 10.459620833401633 21.07530376251318 5.904922995403316 3.268242088217483 -1.1479636244463767 -8.947687122712505 0.000012274460086919046 -0.38796323236023733 -0.000001866131352519389 -4.80853224640719 -1.137693245833834 10.730883998648373 -4.68183618931733 11.44385119771419 2.3692178382182187 0.760816352411421 -9.382470340741841 -8.091574015647794 -0.0000025286121410839635 -0.6021164837888031 0.000004514986012267575
0.022576456889510155 -0.2515854558023527 0.03197262063622475 1.0487731918567431 -0.8740383523649898 -5.154780806153359 -1.1079410539252705 1.2669206218338687 2.803956012021228 1.305291600785974 1.3265575793750457 11.712491666544727 0 0 0 -0.4033793999591612 0.9436866606030693 -2.1037718994759573 2.317443220906591 0.930159476640267 -6.200021003460677 0 0 0 0 0 0 -13.804974186231917 3.5035039087770046 -4.189117372416739 1.3762847099489381 4.267010087012117 -77.38106990126018 -15.44397146208349 -1.980940102645959 0.4692333890820706 8.239306231217673 -28.423682627204442 -10.37286472752132 4.667045545843158 0.24137420978509 -9.228461150089103 2.6911016807483943 0.3901035855078955 -22.139820402578987 0.7189758235103884 0.02765192020911473 -10.55425585856843 15.137004323429462 6.250922179939415 -36.95986777519209 3.6526173767627976 1.244053421661091 -47.16338674615213 2.6236716951423285 0.45370496639263724 -20.91272369868363 8.54759443047006 1.2858883881725882 -17.15715030569277 3.697797081297618 0.8701109655663165 -34.94894239812752 1.363189310072115 0.16192831269199362 -12.653775550145834 11.175647856637907 3.006064298024883 -27.890280270114577 3.502271978659784 1.6341495364313843 -41.72098268839602 1.6190139437788753 0.5172990353114397 -19.72592409119362 -3.3186327650528438 18.936554153511906 9.906706799011424 32.37153061175956 3.905606165047411 -2.2736925523905804 8.660117347567484 4.266374398301828 -0.22383135539238255 3.358923044080359 4.5014355350815505 4.15176759607187 -0.10114925370074553 -0.04414910318894949 61.553130238913575 19.791084222337776 -2.508216636885869 -0.6956289730209659 -6.5641490872950214 -9.794013002581245 12.823779318772232 -4.605942147238583 0.23195951409982962 8.514361875200466 -2.6237646384748827 0.3633211943131652 21.317185809457367 -0.055472044115289505 -0.21448822444671292 14.02255518200242 -15.086882445215398 6.214043168347868 36.25094802252421 -3.5981156728145898 1.1965304590221681 46.34146549873925 0.013308375476697035 -0.7838182706579528 22.30046926760198 -8.498300422394394 1.2483630097208966 16.444202497125694 -3.6377716558563056 0.8308258456135911 34.12564836030901 -1.5007823702723129 0.19261156397805462 16.089721838685936 -11.147639969125628 2.9361029674377606 27.18030015951145 -3.453786452746854 1.580900166406528 40.89584672540333 0.24580389305013065 -0.19248433764612868 17.98945150785804 3.318710599765904 18.936469306777887 -9.906738906643866 -32.37154584153547 3.9056087323305624 2.273677160818459 -7.766907486219811 4.1606591337701575 1.0508323530571058 11.819558282623232 -18.492546567236616 11.952918469379068 10.42628912607636 20.647013505380063 5.677036111457047 3.4088362577579203 -0.9609933355614271 -8.895964887298494 0.000004626716313833706 -0.3603544318138765 -0.000005182517284135889 -4.831599811384599 -0.8392958062355287 10.632459357043743 -4.411605034295744 10.900569177958333 2.455253965575329 0.7869633154267042 -9.114672459851608 -8.164224279729396 0.0000033882453895486294 -0.6352471810628942 0.0000012368972406044346
